<svg width="19" height="19" viewBox="0 0 19 19" fill="none" xmlns="http://www.w3.org/2000/svg">
<path d="M15.5682 1.5625H2.5057C1.50375 1.5625 0.72445 2.37891 0.72445 3.34375V16.4062C0.72445 17.4082 1.50375 18.1875 2.5057 18.1875H7.58968V12.5469H5.25179V9.875H7.58968V7.87109C7.58968 5.57031 8.96273 4.27148 11.0409 4.27148C12.0799 4.27148 13.119 4.45703 13.119 4.45703V6.7207H11.9686C10.8182 6.7207 10.4471 7.42578 10.4471 8.16797V9.875H13.0077L12.5995 12.5469H10.4471V18.1875H15.5682C16.533 18.1875 17.3495 17.4082 17.3495 16.4062V3.34375C17.3495 2.37891 16.533 1.5625 15.5682 1.5625Z" fill="white"/>
</svg>
