<svg width="19" height="19" viewBox="0 0 19 19" fill="none" xmlns="http://www.w3.org/2000/svg">
<path d="M9.84847 5.60742C7.47347 5.60742 5.5809 7.53711 5.5809 9.875C5.5809 12.25 7.47347 14.1426 9.84847 14.1426C12.1864 14.1426 14.1161 12.25 14.1161 9.875C14.1161 7.53711 12.1864 5.60742 9.84847 5.60742ZM9.84847 12.6582C8.32699 12.6582 7.06527 11.4336 7.06527 9.875C7.06527 8.35352 8.28988 7.12891 9.84847 7.12891C11.37 7.12891 12.5946 8.35352 12.5946 9.875C12.5946 11.4336 11.37 12.6582 9.84847 12.6582ZM15.2664 5.45898C15.2664 4.90234 14.8211 4.45703 14.2645 4.45703C13.7078 4.45703 13.2625 4.90234 13.2625 5.45898C13.2625 6.01562 13.7078 6.46094 14.2645 6.46094C14.8211 6.46094 15.2664 6.01562 15.2664 5.45898ZM18.0868 6.46094C18.0125 5.125 17.7157 3.9375 16.7508 2.97266C15.786 2.00781 14.5985 1.71094 13.2625 1.63672C11.8895 1.5625 7.77035 1.5625 6.3973 1.63672C5.06136 1.71094 3.91097 2.00781 2.90902 2.97266C1.94418 3.9375 1.6473 5.125 1.57308 6.46094C1.49886 7.83398 1.49886 11.9531 1.57308 13.3262C1.6473 14.6621 1.94418 15.8125 2.90902 16.8145C3.91097 17.7793 5.06136 18.0762 6.3973 18.1504C7.77035 18.2246 11.8895 18.2246 13.2625 18.1504C14.5985 18.0762 15.786 17.7793 16.7508 16.8145C17.7157 15.8125 18.0125 14.6621 18.0868 13.3262C18.161 11.9531 18.161 7.83398 18.0868 6.46094ZM16.3055 14.7734C16.0457 15.5156 15.452 16.0723 14.7469 16.3691C13.6336 16.8145 11.036 16.7031 9.84847 16.7031C8.62386 16.7031 6.02621 16.8145 4.95004 16.3691C4.20785 16.0723 3.65121 15.5156 3.35433 14.7734C2.90902 13.6973 3.02035 11.0996 3.02035 9.875C3.02035 8.6875 2.90902 6.08984 3.35433 4.97656C3.65121 4.27148 4.20785 3.71484 4.95004 3.41797C6.02621 2.97266 8.62386 3.08398 9.84847 3.08398C11.036 3.08398 13.6336 2.97266 14.7469 3.41797C15.452 3.67773 16.0086 4.27148 16.3055 4.97656C16.7508 6.08984 16.6395 8.6875 16.6395 9.875C16.6395 11.0996 16.7508 13.6973 16.3055 14.7734Z" fill="white"/>
</svg>
