<svg width="20" height="19" viewBox="0 0 20 19" fill="none" xmlns="http://www.w3.org/2000/svg">
<path d="M17.8407 6.01562C18.5828 5.45898 19.2508 4.79102 19.7703 4.01172C19.1024 4.30859 18.3231 4.53125 17.5438 4.60547C18.3602 4.12305 18.9539 3.38086 19.2508 2.45312C18.5086 2.89844 17.6551 3.23242 16.8016 3.41797C16.0594 2.63867 15.0575 2.19336 13.9442 2.19336C11.7918 2.19336 10.0477 3.9375 10.0477 6.08984C10.0477 6.38672 10.0848 6.68359 10.159 6.98047C6.9305 6.79492 4.03597 5.23633 2.10629 2.89844C1.7723 3.45508 1.58675 4.12305 1.58675 4.86523C1.58675 6.20117 2.25472 7.38867 3.3309 8.09375C2.70004 8.05664 2.06918 7.9082 1.54965 7.61133V7.64844C1.54965 9.54102 2.88558 11.0996 4.66683 11.4707C4.36996 11.5449 3.99886 11.6191 3.66488 11.6191C3.40511 11.6191 3.18246 11.582 2.92269 11.5449C3.40511 13.1035 4.85238 14.2168 6.55941 14.2539C5.22347 15.293 3.55355 15.9238 1.73519 15.9238C1.40121 15.9238 1.10433 15.8867 0.807458 15.8496C2.51449 16.9629 4.5555 17.5938 6.78207 17.5938C13.9442 17.5938 17.8407 11.6934 17.8407 6.53516C17.8407 6.34961 17.8407 6.20117 17.8407 6.01562Z" fill="white"/>
</svg>
