<svg width="19" height="20" viewBox="0 0 19 20" fill="none" xmlns="http://www.w3.org/2000/svg">
<path d="M9.57797 0.671875C4.49398 0.671875 0.374841 4.82812 0.374841 9.875C0.374841 14.959 4.49398 19.0781 9.57797 19.0781C14.6248 19.0781 18.7811 14.959 18.7811 9.875C18.7811 4.82812 14.6248 0.671875 9.57797 0.671875ZM15.6268 4.93945C16.7401 6.27539 17.408 7.98242 17.408 9.83789C17.1483 9.76367 14.5506 9.24414 11.953 9.57812C11.7303 9.05859 11.5448 8.61328 11.2479 8.01953C14.1795 6.83203 15.4784 5.16211 15.6268 4.93945ZM14.7733 4.01172C14.6248 4.23438 13.4373 5.83008 10.6541 6.86914C9.35531 4.49414 7.94515 2.56445 7.7225 2.26758C10.2088 1.67383 12.8436 2.30469 14.7733 4.01172ZM6.20101 2.78711C6.42367 3.08398 7.83383 5.01367 9.13265 7.35156C5.45883 8.31641 2.23031 8.31641 1.85922 8.2793C2.37875 5.86719 4.01156 3.82617 6.20101 2.78711ZM1.71078 9.91211C1.71078 9.83789 1.71078 9.76367 1.71078 9.65234C2.04476 9.68945 5.86703 9.72656 9.76351 8.53906C10.0233 8.98438 10.2088 9.42969 10.4315 9.875C7.57406 10.6914 4.9764 12.9922 3.71468 15.1445C2.45297 13.7715 1.71078 11.916 1.71078 9.91211ZM4.71664 16.1094C5.57015 14.4395 7.79672 12.25 10.951 11.1738C12.0643 14.0312 12.5096 16.4434 12.6209 17.1484C10.0975 18.2246 7.05453 17.9277 4.71664 16.1094ZM13.9569 16.4062C13.8827 15.9609 13.4373 13.6602 12.4354 10.8027C14.8846 10.4316 17.037 11.0625 17.3338 11.1367C16.9627 13.3262 15.701 15.2188 13.9569 16.4062Z" fill="white"/>
</svg>
